<?xml version="1.0" standalone="no"?>
<!DOCTYPE svg PUBLIC "-//W3C//DTD SVG 1.1//EN" "http://www.w3.org/Graphics/SVG/1.1/DTD/svg11.dtd" >
<svg xmlns="http://www.w3.org/2000/svg">
<metadata>Generated by IcoMoon</metadata>
<defs>
<font id="icomoon" horiz-adv-x="1024">
<font-face units-per-em="1024" ascent="960" descent="-64" />
<missing-glyph horiz-adv-x="1024" />
<glyph unicode="&#x20;" horiz-adv-x="512" d="" />
<glyph unicode="&#xe900;" horiz-adv-x="1536" d="M0 960h1536v-1024h-1536v1024z" />
<glyph unicode="&#xe901;" horiz-adv-x="1536" d="M0 960h768v-512h-768v512z" />
<glyph unicode="&#xe902;" horiz-adv-x="1536" d="M303.275 777.045l-85.504 23.040 62.805-62.635c4.608 14.848 12.459 28.16 22.699 39.595z" />
<glyph unicode="&#xe903;" horiz-adv-x="1536" d="M350.549 807.595l-62.635 62.805 23.040-85.504c11.435 10.069 24.747 17.92 39.595 22.699z" />
<glyph unicode="&#xe904;" horiz-adv-x="1536" d="M384 812.885c7.851 0 15.531-0.853 22.869-2.389l-22.869 85.504-22.869-85.675c7.339 1.707 15.019 2.56 22.869 2.56z" />
<glyph unicode="&#xe905;" horiz-adv-x="1536" d="M479.915 704c0-52.972-42.942-95.915-95.915-95.915s-95.915 42.942-95.915 95.915c0 52.972 42.942 95.915 95.915 95.915s95.915-42.942 95.915-95.915z" />
<glyph unicode="&#xe906;" horiz-adv-x="1536" d="M576 704l-85.675 22.869c1.536-7.339 2.389-15.019 2.389-22.869s-0.853-15.531-2.389-22.869l85.675 22.869z" />
<glyph unicode="&#xe907;" horiz-adv-x="1536" d="M487.595 737.451l62.805 62.635-85.504-23.040c10.069-11.435 17.92-24.747 22.699-39.595z" />
<glyph unicode="&#xe908;" horiz-adv-x="1536" d="M457.045 784.725l23.040 85.504-62.635-62.805c14.848-4.608 28.16-12.459 39.595-22.699z" />
<glyph unicode="&#xe909;" horiz-adv-x="1536" d="M275.115 704c0 7.851 0.853 15.531 2.389 22.869l-85.504-22.869 85.675-22.869c-1.707 7.339-2.56 15.019-2.56 22.869z" />
<glyph unicode="&#xe90a;" horiz-adv-x="1536" d="M384 595.115c-7.851 0-15.531 0.853-22.869 2.389l22.869-85.504 22.869 85.675c-7.339-1.707-15.019-2.56-22.869-2.56z" />
<glyph unicode="&#xe90b;" horiz-adv-x="1536" d="M464.725 630.955l85.504-23.040-62.805 62.635c-4.608-14.848-12.459-28.16-22.699-39.595z" />
<glyph unicode="&#xe90c;" horiz-adv-x="1536" d="M417.451 600.405l62.635-62.805-23.040 85.504c-11.435-10.069-24.747-17.92-39.595-22.699z" />
<glyph unicode="&#xe90d;" horiz-adv-x="1536" d="M280.405 670.549l-62.805-62.635 85.504 23.040c-10.069 11.435-17.92 24.747-22.699 39.595z" />
<glyph unicode="&#xe90e;" horiz-adv-x="1536" d="M310.955 623.275l-23.040-85.504 62.635 62.805c-14.848 4.608-28.16 12.459-39.595 22.699z" />
<glyph unicode="&#xe90f;" horiz-adv-x="1946" d="M778.24 960v-78.769h1167.36v-78.769h-1167.36v-78.769h1167.36v-78.769h-1167.36v-78.769h1167.36v-78.769h-1167.36v-78.769h1167.36v-78.769h-1945.6v-78.769h1945.6v-78.769h-1945.6v-78.769h1945.6v-78.769h-1945.6v-78.769h1945.6v1024z" />
<glyph unicode="&#xe910;" horiz-adv-x="1946" d="M0 960v-551.385h778.24v551.385h-778.24zM83.338 438.233l-18.59 13.391-18.59-13.391 7.089 21.74-18.59 13.391h22.843l7.404 21.898 7.089-21.74h22.843l-18.59-13.391 7.089-21.898zM76.249 570.25l7.089-21.74-18.59 13.391-18.59-13.391 7.089 21.74-18.59 13.391h22.843l7.089 21.74 7.089-21.74h22.843l-18.274-13.391zM76.249 680.527l7.089-21.74-18.59 13.391-18.59-13.391 7.089 21.74-18.59 13.391h22.843l7.089 21.74 7.089-21.74h22.843l-18.274-13.391zM76.249 790.804l7.089-21.74-18.59 13.391-18.59-13.391 7.089 21.74-18.59 13.391h22.843l7.089 21.74 7.089-21.74h22.843l-18.274-13.391zM76.249 901.081l7.089-21.74-18.59 13.391-18.59-13.391 7.089 21.74-18.59 13.391h22.843l7.089 21.74 7.089-21.74h22.843l-18.274-13.391zM148.244 493.371l-18.59 13.391-18.59-13.391 7.089 21.74-18.59 13.391h22.843l7.089 21.74 7.089-21.74h22.843l-18.59-13.391 7.404-21.74zM141.154 625.388l7.089-21.74-18.59 13.391-18.59-13.391 7.089 21.74-18.59 13.391h22.843l7.089 21.74 7.089-21.74h22.843l-18.274-13.391zM141.154 735.665l7.089-21.74-18.59 13.391-18.59-13.391 7.089 21.74-18.59 13.391h22.843l7.089 21.74 7.089-21.74h22.843l-18.274-13.391zM141.154 845.942l7.089-21.74-18.59 13.391-18.59-13.391 7.089 21.74-18.59 13.391h22.843l7.089 21.74 7.089-21.74h22.843l-18.274-13.391zM213.15 438.233l-18.59 13.391-18.59-13.391 7.089 21.74-18.59 13.391h23.001l7.089 21.898 7.089-21.74h22.843l-18.59-13.391 7.247-21.898zM206.060 570.25l7.089-21.74-18.59 13.391-18.59-13.391 7.089 21.74-18.59 13.391h23.001l7.089 21.74 7.089-21.74h22.843l-18.432-13.391zM206.060 680.527l7.089-21.74-18.59 13.391-18.59-13.391 7.089 21.74-18.59 13.391h23.001l7.089 21.74 7.089-21.74h22.843l-18.432-13.391zM206.060 790.804l7.089-21.74-18.59 13.391-18.59-13.391 7.089 21.74-18.59 13.391h23.001l7.089 21.74 7.089-21.74h22.843l-18.432-13.391zM206.060 901.081l7.089-21.74-18.59 13.391-18.59-13.391 7.089 21.74-18.59 13.391h23.001l7.089 21.74 7.089-21.74h22.843l-18.432-13.391zM277.898 493.371l-18.59 13.391-18.59-13.391 7.089 21.74-18.59 13.391h22.843l7.089 21.74 7.089-21.74h22.843l-18.59-13.391 7.404-21.74zM270.809 625.388l7.089-21.74-18.59 13.391-18.59-13.391 7.089 21.74-18.59 13.391h22.843l7.089 21.74 7.089-21.74h22.843l-18.274-13.391zM270.809 735.665l7.089-21.74-18.59 13.391-18.59-13.391 7.089 21.74-18.59 13.391h22.843l7.089 21.74 7.089-21.74h22.843l-18.274-13.391zM270.809 845.942l7.089-21.74-18.59 13.391-18.59-13.391 7.089 21.74-18.59 13.391h22.843l7.089 21.74 7.089-21.74h22.843l-18.274-13.391zM342.804 438.233l-18.59 13.391-18.59-13.391 7.089 21.74-18.59 13.391h22.843l7.247 21.898 7.089-21.74h22.843l-18.59-13.391 7.247-21.898zM335.714 570.25l7.089-21.74-18.59 13.391-18.59-13.391 7.089 21.74-18.59 13.391h22.843l7.089 21.74 7.089-21.74h22.843l-18.274-13.391zM335.714 680.527l7.089-21.74-18.59 13.391-18.59-13.391 7.089 21.74-18.59 13.391h22.843l7.089 21.74 7.089-21.74h22.843l-18.274-13.391zM335.714 790.804l7.089-21.74-18.59 13.391-18.59-13.391 7.089 21.74-18.59 13.391h22.843l7.089 21.74 7.089-21.74h22.843l-18.274-13.391zM335.714 901.081l7.089-21.74-18.59 13.391-18.59-13.391 7.089 21.74-18.59 13.391h22.843l7.089 21.74 7.089-21.74h22.843l-18.274-13.391zM407.71 493.371l-18.59 13.548-18.59-13.391 7.089 21.74-18.432 13.391h22.843l7.089 21.74 7.089-21.74h22.843l-18.59-13.391 7.247-21.898zM400.62 625.388l7.089-21.74-18.59 13.548-18.59-13.391 7.089 21.74-18.432 13.391h22.843l7.089 21.74 7.089-21.74h22.843l-18.432-13.548zM400.62 735.665l7.089-21.74-18.59 13.391-18.59-13.391 7.089 21.74-18.59 13.391h22.843l7.247 21.898 7.089-21.74h22.843l-18.432-13.548zM400.62 845.942l7.089-21.74-18.59 13.391-18.59-13.391 7.089 21.74-18.59 13.391h22.843l7.247 21.898 7.089-21.74h22.843l-18.432-13.548zM472.458 438.233l-18.59 13.391-18.59-13.391 7.089 21.74-18.59 13.391h22.843l7.404 21.898 7.089-21.74h22.843l-18.59-13.391 7.089-21.898zM465.369 570.25l7.089-21.74-18.59 13.391-18.59-13.391 7.089 21.74-18.59 13.391h22.843l7.089 21.74 7.089-21.74h22.843l-18.274-13.391zM465.369 680.527l7.089-21.74-18.59 13.391-18.59-13.391 7.089 21.74-18.59 13.391h22.843l7.089 21.74 7.089-21.74h22.843l-18.274-13.391zM465.369 790.804l7.089-21.74-18.59 13.391-18.59-13.391 7.089 21.74-18.59 13.391h22.843l7.089 21.74 7.089-21.74h22.843l-18.274-13.391zM465.369 901.081l7.089-21.74-18.59 13.391-18.59-13.391 7.089 21.74-18.59 13.391h22.843l7.089 21.74 7.089-21.74h22.843l-18.274-13.391zM537.364 493.371l-18.59 13.391-18.59-13.391 7.089 21.74-18.59 13.391h22.843l7.089 21.74 7.089-21.74h22.843l-18.59-13.391 7.404-21.74zM530.274 625.388l7.089-21.74-18.59 13.391-18.59-13.391 7.089 21.74-18.59 13.391h22.843l7.089 21.74 7.089-21.74h22.843l-18.274-13.391zM530.274 735.665l7.089-21.74-18.59 13.391-18.59-13.391 7.089 21.74-18.59 13.391h22.843l7.089 21.74 7.089-21.74h22.843l-18.274-13.391zM530.274 845.942l7.089-21.74-18.59 13.391-18.59-13.391 7.089 21.74-18.59 13.391h22.843l7.089 21.74 7.089-21.74h22.843l-18.274-13.391zM602.27 438.233l-18.59 13.391-18.59-13.391 7.089 21.74-18.59 13.391h23.001l7.089 21.898 7.089-21.74h22.843l-18.59-13.391 7.247-21.898zM595.18 570.25l7.089-21.74-18.59 13.391-18.59-13.391 7.089 21.74-18.59 13.391h23.001l7.089 21.74 7.089-21.74h22.843l-18.432-13.391zM595.18 680.527l7.089-21.74-18.59 13.391-18.59-13.391 7.089 21.74-18.59 13.391h23.001l7.089 21.74 7.089-21.74h22.843l-18.432-13.391zM595.18 790.804l7.089-21.74-18.59 13.391-18.59-13.391 7.089 21.74-18.59 13.391h23.001l7.089 21.74 7.089-21.74h22.843l-18.432-13.391zM595.18 901.081l7.089-21.74-18.59 13.391-18.59-13.391 7.089 21.74-18.59 13.391h23.001l7.089 21.74 7.089-21.74h22.843l-18.432-13.391zM667.018 493.371l-18.59 13.391-18.59-13.391 7.089 21.74-18.59 13.391h22.843l7.089 21.74 7.089-21.74h22.843l-18.59-13.391 7.404-21.74zM659.929 625.388l7.089-21.74-18.59 13.391-18.59-13.391 7.089 21.74-18.59 13.391h22.843l7.089 21.74 7.089-21.74h22.843l-18.274-13.391zM659.929 735.665l7.089-21.74-18.59 13.391-18.59-13.391 7.089 21.74-18.59 13.391h22.843l7.089 21.74 7.089-21.74h22.843l-18.274-13.391zM659.929 845.942l7.089-21.74-18.59 13.391-18.59-13.391 7.089 21.74-18.59 13.391h22.843l7.089 21.74 7.089-21.74h22.843l-18.274-13.391zM731.924 438.233l-18.59 13.391-18.59-13.391 7.089 21.74-18.59 13.391h22.843l7.089 21.74 7.089-21.74h22.843l-18.59-13.391 7.404-21.74zM724.834 570.25l7.089-21.74-18.59 13.391-18.59-13.391 7.089 21.74-18.59 13.391h22.843l7.089 21.74 7.089-21.74h22.843l-18.274-13.391zM724.834 680.527l7.089-21.74-18.59 13.391-18.59-13.391 7.089 21.74-18.59 13.391h22.843l7.089 21.74 7.089-21.74h22.843l-18.274-13.391zM724.834 790.804l7.089-21.74-18.59 13.391-18.59-13.391 7.089 21.74-18.59 13.391h22.843l7.089 21.74 7.089-21.74h22.843l-18.274-13.391zM724.834 901.081l7.089-21.74-18.59 13.391-18.59-13.391 7.089 21.74-18.59 13.391h22.843l7.089 21.74 7.089-21.74h22.843l-18.274-13.391z" />
<glyph unicode="&#xe911;" horiz-adv-x="1536" d="M0 960h1536v-1024h-1536v1024z" />
<glyph unicode="&#xe912;" horiz-adv-x="1536" d="M839.68 746.325c-166.912 11.435-246.784-209.067-86.357-291.328-16.555 13.141-29.184 32.768-35.499 56.149-9.045 33.109-3.925 68.608 14.336 97.451l3.755-2.389c-17.579-27.819-22.528-62.123-13.824-93.867 6.485-23.723 20.139-44.032 37.547-56.491-29.355 32.085-17.579 84.139 27.989 104.619 30.037 13.483 54.272 69.12 32.085 103.765-19.797 30.891-14.677 64.171 19.968 82.091zM758.272 617.131l-10.069-15.872-3.584 18.432-18.261 4.779 16.384 9.216-1.195 18.773 13.824-12.8 17.579 6.827-7.851-17.067 11.947-14.507-18.773 2.219z" />
<glyph unicode="&#xe913;" horiz-adv-x="1536" d="M770.048 464.043c7.339 19.797 22.187 37.888 42.325 51.2 28.672 18.773 64 24.917 97.109 16.555l-1.024-4.267c-31.915 8.021-66.048 2.219-93.525-15.872-20.48-13.483-35.669-32.768-42.155-53.248 21.504 37.888 74.581 42.667 108.203 5.632 22.187-24.405 82.603-30.379 108.544 1.536 23.211 28.501 56.491 33.963 84.139 6.315-40.448 162.304-274.944 170.155-303.616-7.851zM939.52 506.88l-10.069-15.872-3.755 18.432-18.261 4.779 16.384 9.216-1.195 18.773 13.824-12.8 17.579 6.827-7.851-17.067 11.947-14.507-18.603 2.219z" />
<glyph unicode="&#xe914;" horiz-adv-x="1536" d="M783.872 450.901c21.163-0.853 42.837-9.387 61.781-24.576 26.795-21.504 43.349-53.248 45.739-87.211l-4.437-0.341c-2.219 32.768-18.261 63.488-44.032 84.139-19.115 15.36-42.325 23.723-63.659 23.552 42.667-8.704 63.659-57.856 38.912-101.205-16.384-28.672-3.243-87.893 34.987-102.741 34.133-13.312 49.664-43.179 32.085-78.165 141.824 89.088 76.8 314.539-101.376 286.549zM890.88 300.373l-10.069-15.872-3.755 18.432-18.261 4.779 16.384 9.216-1.195 18.773 13.824-12.8 17.579 6.827-7.851-17.067 11.947-14.507-18.603 2.219z" />
<glyph unicode="&#xe915;" horiz-adv-x="1536" d="M775.68 433.835c5.632-20.309 4.267-43.691-4.267-66.389-12.117-32.085-37.205-57.685-68.949-70.485l-1.707 4.096c30.549 12.288 54.784 37.035 66.389 67.925 8.704 23.040 9.557 47.445 2.731 67.755 4.949-43.349-35.328-78.336-84.139-68.267-32.256 6.656-84.651-24.064-86.869-65.024-2.048-36.693-25.771-60.587-64.341-54.613 128.512-107.349 322.731 24.235 241.152 185.003zM679.424 282.965l-10.069-15.872-3.584 18.432-18.261 4.779 16.384 9.216-1.195 18.773 13.824-12.8 17.579 6.827-7.851-17.067 11.947-14.507-18.773 2.219z" />
<glyph unicode="&#xe916;" horiz-adv-x="1536" d="M692.395 419.669c-34.304 1.536-66.389 17.579-88.235 43.691l3.413 2.901c20.992-25.088 52.053-40.448 85.163-41.984 24.576-1.195 48.128 5.632 65.365 18.261-39.765-18.091-85.504 9.387-90.795 59.051-3.584 32.768-48.981 73.045-88.747 62.635-35.499-9.387-65.707 5.803-71.851 44.373-62.464-155.307 122.709-299.52 250.368-172.203-17.749-11.776-40.448-17.749-64.683-16.725zM587.264 462.848l-3.584 18.432-18.261 4.779 16.384 9.216-1.195 18.773 13.824-12.8 17.579 6.827-7.851-17.067 11.947-14.507-18.603 2.219-10.24-15.872z" />
<glyph unicode="&#xe917;" horiz-adv-x="1536" d="M0 960h1536v-1024h-1536v1024z" />
<glyph unicode="&#xe918;" horiz-adv-x="1536" d="M311.808 685.909l90.283 65.536h-111.616l-34.475 106.155-34.475-106.155h-111.616l90.283-65.536-34.475-106.155 90.283 65.536 90.283-65.536z" />
<glyph unicode="&#xe919;" horiz-adv-x="1536" d="M504.32 839.68l19.115-31.915 3.243 37.035 36.352 8.363-34.304 14.507 3.243 37.035-24.405-27.989-34.133 14.507 19.115-31.915-24.405-27.989z" />
<glyph unicode="&#xe91a;" horiz-adv-x="1536" d="M600.405 741.547l5.291-36.864 17.237 32.939 36.693-6.315-25.941 26.624 17.408 32.939-33.28-16.384-25.941 26.624 5.291-36.693-33.451-16.384z" />
<glyph unicode="&#xe91b;" horiz-adv-x="1536" d="M633.173 596.309l29.355 22.869-37.205-1.365-12.8 34.987-10.24-35.84-37.035-1.365 30.72-20.651-10.24-35.84 29.355 22.869 30.891-20.651z" />
<glyph unicode="&#xe91c;" horiz-adv-x="1536" d="M528.384 509.952l1.707 37.205-23.211-29.013-34.816 12.971 20.48-31.061-23.381-29.013 36.011 9.899 20.309-31.061 1.707 37.035 36.011 9.899z" />
<glyph unicode="&#xe91d;" horiz-adv-x="2048" d="M0 228.571h2048v-73.143h-2048v73.143z" />
<glyph unicode="&#xe91e;" horiz-adv-x="2048" d="M0 82.286h2048v-73.143h-2048v73.143z" />
<glyph unicode="&#xe91f;" horiz-adv-x="2048" d="M1024 521.143h1024v-73.143h-1024v73.143z" />
<glyph unicode="&#xe920;" horiz-adv-x="2048" d="M0 374.857h2048v-73.143h-2048v73.143z" />
<glyph unicode="&#xe921;" horiz-adv-x="2048" d="M1024 960h1024v-73.143h-1024v73.143z" />
<glyph unicode="&#xe922;" horiz-adv-x="2048" d="M1024 667.429h1024v-73.143h-1024v73.143z" />
<glyph unicode="&#xe923;" horiz-adv-x="2048" d="M1024 813.714h1024v-73.143h-1024v73.143z" />
<glyph unicode="&#xe924;" horiz-adv-x="2048" d="M0 960h1024v-585.143h-1024v585.143z" />
<glyph unicode="&#xe925;" horiz-adv-x="2048" d="M281.454 666.843c0 107.374 87.479 194.56 195.218 194.56 23.845 0 46.592-4.242 67.73-12.069-35.109 23.698-77.531 37.522-123.099 37.522-121.49 0-220.16-98.304-220.16-219.429s98.67-219.429 220.16-219.429c43.886 0 84.846 12.873 119.15 34.962-20.041-6.875-41.472-10.679-63.854-10.679-107.739 0-195.145 87.186-195.145 194.56z" />
<glyph unicode="&#xe926;" horiz-adv-x="2048" d="M726.235 667.282l96.622 40.594-105.106-4.096 69.047 77.458-92.891-48.128 27.721 98.962-62.318-82.651-19.017 100.864-19.383-100.791-62.025 82.798 27.429-99.035-92.745 48.421 68.754-77.605-105.033 4.315 96.475-40.814-96.622-40.594 105.106 4.096-69.047-77.458 92.891 48.128-27.721-98.962 62.318 82.651 19.017-100.864 19.383 100.791 62.025-82.798-27.429 99.035 92.745-48.421-68.754 77.605 105.033-4.315z" />
<glyph unicode="&#xe927;" horiz-adv-x="1536" d="M0 448h1536v-512h-1536v512z" />
<glyph unicode="&#xe928;" horiz-adv-x="1536" d="M0 960v-512h1536v512h-1536zM334.293 511.467c-106.347 0-192.533 86.187-192.533 192.533s86.187 192.533 192.533 192.533c22.258 0 43.662-3.769 63.538-10.738-96.996-3.947-174.436-83.84-174.436-181.796s77.44-177.849 174.436-181.796c-19.876-6.969-41.28-10.738-63.538-10.738zM358.116 699.342l-26.169 20.053-26.133-20.089 10.062 32.356-26.24 19.947 32.391-0.071 9.92 32.391 9.956-32.391 32.391 0.071-26.24-19.947 10.062-32.32zM386.453 609.849l10.062-32.356-26.169 20.053-26.133-20.089 10.062 32.356-26.24 19.947 32.391-0.071 9.92 32.391 9.956-32.391 32.391 0.071-26.24-19.911zM408.533 775.502l10.062 32.356-26.24 19.947 32.391-0.071 9.92 32.391 9.956-32.391 32.391 0.071-26.24-19.947 10.062-32.356-26.169 20.053-26.133-20.053zM524.942 577.493l-26.169 20.053-26.133-20.089 10.062 32.356-26.24 19.947 32.391-0.071 9.92 32.391 9.956-32.391 32.391 0.071-26.24-19.947 10.062-32.32zM563.342 699.342l-26.169 20.053-26.133-20.089 10.062 32.356-26.24 19.947 32.391-0.071 9.92 32.391 9.956-32.391 32.391 0.071-26.24-19.947 10.062-32.32z" />
</font>
</defs>
</svg>
